<?xml version="1.0" encoding="utf-8"?>
<!-- Generator: Adobe Illustrator 21.1.0, SVG Export Plug-In . SVG Version: 6.00 Build 0)  -->
<svg version="1.1" id="MKTG_ICN_1" xmlns="http://www.w3.org/2000/svg" xmlns:xlink="http://www.w3.org/1999/xlink" x="0px" y="0px"
	 viewBox="0 0 540.8 641.2" style="enable-background:new 0 0 540.8 641.2;" xml:space="preserve">
<style type="text/css">
	.st0{fill:#65A637;}
	.st1{fill:#474444;}
</style>
<title>AI</title>
<g>
	<path class="st0" d="M315.2,204c-26.6,0-48.3-21.6-48.3-48.3c0-26.6,21.6-48.3,48.3-48.3h0c26.6,0,48.2,21.7,48.2,48.3
		C363.4,182.4,341.8,204,315.2,204z M315.2,120v12.5c-12.8,0-23.3,10.4-23.3,23.3s10.4,23.3,23.3,23.3c12.8,0,23.3-10.4,23.3-23.3
		c0-12.8-10.4-23.3-23.2-23.3L315.2,120z"/>
</g>
<g>
	<path class="st0" d="M132,335.6c-26.6,0-48.3-21.6-48.3-48.2c0-26.6,21.6-48.3,48.2-48.3c0,0,0,0,0,0h0c12.9,0,25,5,34.1,14.1
		c9.1,9.1,14.1,21.2,14.1,34.1c0,12.9-5,25-14.1,34.1C157,330.5,144.9,335.6,132,335.6C132,335.6,132,335.6,132,335.6z M131.9,251.5
		l0,12.5c-12.8,0-23.3,10.4-23.3,23.3c0,12.8,10.4,23.3,23.3,23.3c0,0,0,0,0,0c6.2,0,12.1-2.4,16.4-6.8c4.4-4.4,6.8-10.2,6.8-16.4
		c0-6.2-2.4-12.1-6.8-16.4S138.2,264,132,264L131.9,251.5z"/>
</g>
<g>
	<path class="st0" d="M289.3,446h-54.1v-25h41.6V289.8c0-6.9,5.6-12.5,12.5-12.5h66.1v25h-53.6v131.2
		C301.8,440.4,296.2,446,289.3,446z"/>
</g>
<g>
	<path class="st0" d="M379.7,339.6c-26.6,0-48.2-21.6-48.2-48.2v0c0-12.9,5-25,14.1-34.1c9.1-9.1,21.2-14.1,34.1-14.1c0,0,0,0,0,0
		c26.6,0,48.2,21.7,48.2,48.3C428,318,406.3,339.6,379.7,339.6z M379.7,268.1c-6.2,0-12,2.4-16.4,6.8c-4.4,4.4-6.8,10.2-6.8,16.4
		l-12.5,0h12.5c0,12.8,10.4,23.2,23.2,23.2s23.2-10.4,23.2-23.2C403,278.5,392.5,268.1,379.7,268.1
		C379.7,268.1,379.7,268.1,379.7,268.1z"/>
</g>
<g>
	<path class="st0" d="M201.2,580.7h-25V341.5l-32.4-34l18.1-17.2l35.9,37.6c2.2,2.3,3.4,5.4,3.4,8.6V580.7z"/>
</g>
<g>
	<path class="st0" d="M251,581h-25V237.6c0-3.6,1.5-7,4.2-9.3l60.1-53.4l16.6,18.7L251,243.2V581z"/>
</g>
<g>
	<path class="st1" d="M340.7,625h-238c-6.5,0-12-5-12.5-11.6c0-0.5-3.8-49.7-11.7-105.5c-10.3-72.7-22.8-123.4-36.1-146.6
		c-0.1-0.2-0.2-0.4-0.3-0.5c-32.4-63.4-46.2-122-41.1-174C5.7,140.4,26,99.1,59.7,67.4C99.8,29.9,157.4,6.3,222,1.1
		c62.2-5,124.9,8.1,171.9,36.1C429.1,58,455.3,87,469.8,121c15.7,37,17.9,79.3,6.5,125.8c7.2,13.8,39.8,66.6,62.6,102.9
		c1.9,3,2.4,6.6,1.5,10s-3.3,6.2-6.4,7.8l-29.6,14.9c-5.5,7.5-26,38.7-22.4,84.8c2.1,26.6-10.4,49.2-35.2,63.7
		c-25.2,14.8-59.3,18.1-85.3,9.7l-8.4,73.3C352.4,620.2,347,625,340.7,625z M114.2,600h215.4l9.1-79.5c0.5-4.3,3.2-8.1,7.2-9.9
		c4-1.8,8.6-1.5,12.2,1c18.3,12.3,53.2,11.2,76.2-2.2c11.4-6.6,24.5-19,22.9-40.1c-5-63.8,28.3-103.2,29.7-104.9
		c1.1-1.2,2.4-2.3,3.8-3l19.8-10c-6.4-10.2-16.1-25.8-25.7-41.4c-9.6-15.6-17.2-28.2-22.6-37.4c-10.9-18.7-12.6-22.2-11.1-28
		c11.1-42.6,9.7-80.9-4.3-113.7c-12.5-29.5-34.6-53.7-65.6-72.2C338.5,33.2,281.2,21.3,224.1,26c-59,4.8-111.3,26-147.2,59.7
		C47.1,113.5,30,148.4,25.9,189.2c-4.7,47.1,8.2,100.9,38.3,159.9c15.1,26.4,28.2,78.7,39.1,155.5C109,545,112.6,581.9,114.2,600z
		 M475.3,250.9c0,0,0,0.1,0,0.1C475.2,251,475.2,250.9,475.3,250.9z"/>
</g>
</svg>
